<?xml version="1.0" encoding="UTF-8"?>
<svg width="1208" height="380" viewBox="0 0 1208 380" xmlns="http://www.w3.org/2000/svg">
    <g id="extreme" fill="#fe5000">
        <path d="M 7.186096 8.024597 L 28.361206 42.909973 L 144.112366 42.909973 L 144.112366 8.024597 L 7.186096 8.024597 Z"/>
        <path d="M 7.186096 127.118347 L 144.112366 127.118347 L 144.112366 92.232513 L 7.186096 92.232513 L 7.186096 127.118347 Z"/>
        <path d="M 7.186096 211.33667 L 144.112366 211.33667 L 144.112366 176.453033 L 28.361206 176.453033 L 7.186096 211.33667 Z"/>
        <path d="M 679.585938 8.024597 L 700.765137 42.909973 L 816.512207 42.909973 L 816.512207 8.024597 L 679.585938 8.024597 Z"/>
        <path d="M 679.585938 127.118347 L 816.512207 127.118347 L 816.512207 92.232513 L 679.585938 92.232513 L 679.585938 127.118347 Z"/>
        <path d="M 679.585938 211.33667 L 816.512207 211.33667 L 816.512207 176.453033 L 700.765137 176.453033 L 679.585938 211.33667 Z"/>
        <path d="M 1062.589722 8.024597 L 1083.764893 42.909973 L 1199.515991 42.909973 L 1199.515991 8.024597 L 1062.589722 8.024597 Z"/>
        <path d="M 1062.589722 127.118347 L 1199.515991 127.118347 L 1199.515991 92.232513 L 1062.589722 92.232513 L 1062.589722 127.118347 Z"/>
        <path d="M 1062.589722 211.33667 L 1199.515991 211.33667 L 1199.515991 176.453033 L 1083.764893 176.453033 L 1062.589722 211.33667 Z"/>
        <path d="M 367.000549 8.026672 L 323.136597 8.026672 L 265.975159 81.494598 L 208.813721 8.024597 L 164.949768 8.024597 L 244.043213 109.682617 L 164.949768 211.338745 L 208.813721 211.338745 L 265.975159 137.870697 L 323.136597 211.33667 L 367.000549 211.33667 L 287.907104 109.682617 L 367.000549 8.026672 Z"/>
        <path d="M 422.636108 8.024597 L 387.752502 8.024597 L 387.752502 42.909973 L 387.752502 211.33667 L 422.636108 211.33667 L 422.636108 42.909973 L 490.010742 42.909973 L 490.010742 8.024597 L 422.636108 8.024597 Z"/>
        <path d="M 1041.601807 8.260437 L 1041.601807 8.260437 L 1028.491455 22.013733 L 939.900879 111.82901 L 838.200073 8.840393 L 837.272339 7.918762 L 837.272339 52.250427 L 939.900879 156.299255 L 1006.974487 88.302094 L 1006.974487 212.046661 L 1041.862183 212.046661 L 1041.862183 7.98999 L 1041.601807 8.260437 Z"/>
        <path d="M 617.977051 138.554291 C 629.565674 133.903412 658.536987 116.614166 658.455566 73.86499 C 657.719116 57.304199 650.578003 18.83374 601.904541 9.151672 C 596.924072 8.160828 587.728027 8.024597 587.728027 8.024597 L 544.360596 8.024597 L 500.504761 8.024597 L 519.917969 42.450439 C 530.090576 42.562073 562.134033 42.909973 564.03833 42.909973 L 591.821533 42.909973 C 591.821533 42.909973 593.099121 42.942505 593.790894 42.979187 C 602.689819 43.428772 621.744995 50.919983 624.471191 71.661682 C 624.711304 77.374573 625.700073 95.961914 606.730347 106.604431 C 605.599121 107.237122 601.546387 109.072235 596.329956 110.01828 C 584.981445 111.186127 562.679199 110.644958 558.471924 110.809753 L 615.161377 211.33667 L 659.025269 211.33667 L 617.977051 138.554291 Z"/>
    </g>
    <g id="exchange" fill="#ce1c61">
        <path d="M 708.288818 312.681671 L 707.751709 312.412933 L 707.751709 312.681671 L 655.074219 312.681671 C 656.421143 324.538757 664.909058 333.968323 678.381592 333.968323 C 687.003784 333.968323 693.60376 330.330811 696.435791 324.4021 L 706.404785 324.4021 C 702.76709 335.046661 691.854004 341.91748 678.113037 341.91748 C 659.114746 341.91748 645.78064 327.500824 645.78064 309.043762 C 645.78064 290.722931 659.114746 276.306671 678.113037 276.306671 C 695.894531 276.306671 708.288818 290.049591 708.423096 308.775421 C 708.423096 310.122101 708.423096 311.46875 708.288818 312.681671 Z M 655.074219 305.54248 L 699.129395 305.54248 C 698.051147 293.012085 690.10437 284.255432 677.844482 284.255432 C 664.77478 284.255432 656.421143 293.821655 655.074219 305.54248 Z"/>
        <path d="M 739.945679 315.377075 L 719.197754 340.165405 L 708.150391 340.165405 L 733.748535 309.043762 L 708.69165 277.924164 L 720.007568 277.924164 L 739.811401 302.309601 L 759.749512 277.924164 L 771.06958 277.924164 L 746.008545 309.043762 L 771.606689 340.165405 L 760.559326 340.165405 L 739.945679 315.377075 Z"/>
        <path d="M 824.271851 319.417908 L 833.838135 319.417908 C 831.278687 332.755829 819.555908 341.91748 804.602295 341.91748 C 785.742432 341.91748 772.13562 327.500824 772.13562 309.043762 C 772.13562 290.722931 785.742432 276.306671 804.602295 276.306671 C 819.555908 276.306671 831.278687 285.467926 833.838135 298.806244 L 824.271851 298.806244 C 822.249512 290.318329 814.705566 284.794586 804.602295 284.794586 C 790.592651 284.794586 781.429199 295.70752 781.429199 309.043762 C 781.429199 322.516235 790.592651 333.429169 804.602295 333.429169 C 814.705566 333.429169 822.249512 327.905853 824.271851 319.417908 Z"/>
        <path d="M 904.561523 304.329987 L 904.561523 340.165405 L 895.398193 340.165405 L 895.398193 304.732513 C 895.398193 291.799164 887.719971 284.389587 876.404053 284.389587 C 868.457275 284.389587 860.37207 288.56665 854.984741 295.976257 L 854.984741 340.165405 L 845.821289 340.165405 L 845.821289 244.513336 L 854.984741 244.513336 L 854.984741 285.33374 C 860.774902 279.404999 868.860107 275.903748 878.019409 275.903748 C 893.648438 275.903748 904.561523 286.814575 904.561523 304.329987 Z"/>
        <path d="M 978.108887 340.165405 L 968.949585 340.165405 L 968.949585 333.294983 C 963.289551 338.68457 955.745605 341.91748 946.452026 341.91748 C 928.666382 341.91748 914.253906 327.366669 914.253906 309.043762 C 914.253906 290.857513 928.666382 276.306671 946.452026 276.306671 C 955.745605 276.306671 963.289551 279.54126 968.949585 284.928741 L 968.949585 277.924164 L 978.108887 277.924164 L 978.108887 340.165405 Z M 968.949585 322.516235 L 968.949585 295.70752 C 963.696533 288.163757 956.152588 284.389587 947.664551 284.389587 C 933.923584 284.389587 923.547607 295.70752 923.547607 309.043762 C 923.547607 322.516235 933.923584 333.834167 947.664551 333.834167 C 956.152588 333.834167 963.696533 330.062073 968.949585 322.516235 Z"/>
        <path d="M 1052.872925 304.329987 L 1052.872925 340.165405 L 1043.709473 340.165405 L 1043.709473 304.732513 C 1043.709473 291.799164 1036.03125 284.389587 1024.715332 284.389587 C 1016.768555 284.389587 1008.683472 288.56665 1003.296143 295.976257 L 1003.296143 340.165405 L 994.13269 340.165405 L 994.13269 277.924164 L 1003.296143 277.924164 L 1003.296143 285.33374 C 1009.086304 279.404999 1017.171387 275.903748 1026.330811 275.903748 C 1041.959839 275.903748 1052.872925 286.814575 1052.872925 304.329987 Z"/>
        <path d="M 1125.480347 342.185852 C 1125.480347 360.91333 1112.951904 372.902893 1094.494873 372.902893 C 1078.194336 372.902893 1065.934448 363.338745 1063.777832 349.731659 L 1073.209839 349.731659 C 1075.09375 358.488342 1083.178955 364.415009 1094.494873 364.415009 C 1107.426147 364.415009 1116.186768 355.928741 1116.186768 342.185852 L 1116.321045 342.185852 L 1116.321045 331.274994 C 1110.392456 336.79834 1102.307373 340.165405 1092.879395 340.165405 C 1075.09375 340.165405 1061.487061 325.61499 1061.487061 308.236237 C 1061.487061 289.779175 1075.09375 275.767487 1092.879395 275.767487 C 1102.307373 275.767487 1110.392456 279.136658 1116.321045 284.6604 L 1116.321045 277.924164 L 1125.480347 277.924164 L 1125.480347 342.185852 Z M 1116.321045 320.361664 L 1116.321045 295.573334 C 1110.929565 287.624603 1102.714233 283.852509 1094.092041 283.852509 C 1080.485229 283.852509 1070.784668 294.629181 1070.784668 308.236237 C 1070.784668 320.766663 1080.485229 332.08252 1094.092041 332.08252 C 1102.714233 332.08252 1110.929565 328.310425 1116.321045 320.361664 Z"/>
        <path d="M 1199.703125 312.681671 L 1199.166016 312.412933 L 1199.166016 312.681671 L 1146.488647 312.681671 C 1147.835449 324.538757 1156.323486 333.968323 1169.795898 333.968323 C 1178.418213 333.968323 1185.018066 330.330811 1187.850098 324.4021 L 1197.819214 324.4021 C 1194.181519 335.046661 1183.268433 341.91748 1169.527344 341.91748 C 1150.529175 341.91748 1137.195068 327.500824 1137.195068 309.043762 C 1137.195068 290.722931 1150.529175 276.306671 1169.527344 276.306671 C 1187.30896 276.306671 1199.703125 290.049591 1199.837402 308.775421 C 1199.837402 310.122101 1199.837402 311.46875 1199.703125 312.681671 Z M 1146.488647 305.54248 L 1190.543823 305.54248 C 1189.465576 293.012085 1181.518799 284.255432 1169.258789 284.255432 C 1156.189209 284.255432 1147.835449 293.821655 1146.488647 305.54248 Z"/>
    </g>
</svg>
