<?xml version="1.0" encoding="UTF-8"?>
<!-- Generated by Pixelmator Pro 3.6.17 -->
<svg width="749" height="296" viewBox="0 0 749 296" xmlns="http://www.w3.org/2000/svg">
    <path id="text2" fill="#666666" stroke="none" d="M 229.470886 214.787842 C 234.974884 214.787842 239.454895 218.563843 239.454895 225.027832 C 239.454895 231.363831 234.974884 235.331848 229.470886 235.331848 C 223.902893 235.331848 219.358887 231.23584 219.358887 225.027832 C 219.358887 218.947815 223.966888 214.787842 229.470886 214.787842 Z M 212.382904 196.099792 L 212.382904 240.835815 L 218.590881 240.835815 L 218.974884 235.843811 C 221.470886 239.875793 225.694885 241.47583 229.918884 241.47583 C 239.070892 241.47583 246.046875 235.459839 246.046875 225.027832 C 246.046875 214.275818 239.134888 208.579834 230.046875 208.579834 C 226.206879 208.579834 221.022888 210.499817 218.974884 214.211792 L 218.974884 196.099792 Z M 274.654846 209.283813 L 268.382843 224.323792 L 264.990845 233.155823 L 261.854828 224.195801 L 256.414825 209.283813 L 248.734833 209.283813 L 261.342834 240.387817 L 254.81485 255.491821 L 262.11084 255.491821 L 282.014832 209.283813 Z M 336.030975 233.795837 L 310.110962 233.795837 L 310.110962 221.763794 L 334.814972 221.763794 L 334.814972 215.107849 L 310.110962 215.107849 L 310.110962 203.011841 L 335.838959 203.011841 L 335.838959 196.035828 L 302.942963 196.035828 C 302.942963 210.947815 302.942963 225.923828 302.942963 240.835815 L 336.030975 240.835815 Z M 356.062927 220.547791 L 349.022919 209.283813 L 341.086945 209.283813 L 341.086945 209.47583 L 351.710938 224.77179 L 340.382935 240.643799 L 340.382935 240.835815 L 348.318939 240.835815 L 356.062927 229.379822 L 363.806915 240.835815 L 371.74292 240.835815 L 371.74292 240.643799 L 360.414917 224.77179 L 371.03894 209.47583 L 371.03894 209.283813 L 363.03894 209.283813 Z M 380.510925 200.899841 L 380.510925 209.347839 L 374.430939 209.347839 L 374.430939 215.043823 L 380.510925 215.043823 L 380.510925 230.083801 C 380.510925 237.507813 384.414917 241.411804 391.262939 241.219849 C 393.50293 241.219849 395.422913 240.77179 397.598938 239.811829 L 395.678955 234.17981 C 394.398926 234.819824 392.926941 235.267822 391.646912 235.267822 C 388.574951 235.267822 387.102936 233.411804 387.102936 230.083801 L 387.102936 215.043823 L 396.382935 215.043823 L 396.382935 209.347839 L 387.166931 209.347839 L 387.166931 200.195801 Z M 403.038879 209.283813 L 403.038879 240.835815 L 409.63092 240.835815 L 409.63092 223.747803 C 409.63092 217.923828 413.598877 215.107849 418.142883 215.107849 C 420.57489 215.107849 422.110901 215.747803 423.710876 217.027832 L 426.718872 211.267822 C 424.92688 209.667847 421.98291 208.579834 418.910889 208.579834 C 415.518921 208.579834 411.934875 209.411804 409.63092 213.443848 L 409.182922 209.283813 Z M 460.830933 227.523804 C 462.046936 214.65979 455.134949 208.451843 444.958923 208.451843 C 435.102966 208.451843 428.382935 215.299805 428.382935 224.899841 C 428.382935 235.011841 435.03894 241.603821 445.406921 241.603821 C 450.270935 241.603821 455.710938 239.811829 458.974915 236.227844 L 454.686951 232.06781 C 452.766968 234.243835 448.734924 235.459839 445.534912 235.459839 C 439.774963 235.459839 435.806946 232.323792 435.230957 227.523804 Z M 435.358948 221.955811 C 436.382935 216.963806 440.350952 214.339844 445.15094 214.339844 C 450.462952 214.339844 454.110962 216.963806 454.494934 221.955811 Z M 495.774963 240.835815 L 495.774963 223.491821 C 495.774963 218.819824 498.782959 214.979797 503.454956 214.979797 C 508.126953 214.979797 510.430969 218.691833 510.430969 223.363831 L 510.430969 240.835815 L 517.086975 240.835815 L 517.086975 223.363831 C 517.086975 214.275818 512.414978 208.77179 503.710999 208.77179 C 499.422974 208.77179 495.454956 210.371826 492.894958 215.043823 C 491.102966 210.371826 487.006958 208.707825 482.974976 208.707825 C 479.646973 208.707825 475.934998 209.987793 474.143005 213.443848 L 473.695007 209.219849 L 467.550964 209.219849 L 467.550964 240.835815 L 474.143005 240.835815 L 474.143005 223.491821 C 474.143005 218.819824 477.086975 214.915833 481.758972 214.915833 C 486.430969 214.915833 489.118958 218.819824 489.118958 223.491821 L 489.118958 240.835815 Z M 556.126953 227.523804 C 557.342957 214.65979 550.430969 208.451843 540.254944 208.451843 C 530.398987 208.451843 523.678955 215.299805 523.678955 224.899841 C 523.678955 235.011841 530.334961 241.603821 540.702942 241.603821 C 545.566956 241.603821 551.006958 239.811829 554.270935 236.227844 L 549.982971 232.06781 C 548.062988 234.243835 544.030945 235.459839 540.830933 235.459839 C 535.070984 235.459839 531.102966 232.323792 530.526978 227.523804 Z M 530.654968 221.955811 C 531.678955 216.963806 535.646973 214.339844 540.44696 214.339844 C 545.758972 214.339844 549.406982 216.963806 549.790955 221.955811 Z M 579.935059 196.035828 L 579.935059 240.835815 L 610.719055 240.835815 L 610.719055 234.17981 L 587.103027 234.17981 L 587.103027 196.035828 Z M 641.183105 214.275818 C 639.199097 210.691833 634.911072 208.579834 630.431091 208.579834 C 621.343079 208.579834 614.111084 214.467834 614.111084 225.027832 C 614.111084 235.779846 621.087097 241.731812 630.303101 241.667847 C 634.207092 241.667847 639.071106 239.747803 641.183105 235.71582 L 641.503113 240.835815 L 647.775085 240.835815 C 647.775085 230.339844 647.775085 219.779846 647.775085 209.283813 L 641.375061 209.283813 Z M 630.943115 214.595825 C 644.575073 214.595825 644.575073 235.523804 630.943115 235.523804 C 625.311096 235.523804 620.703064 231.555847 620.703064 225.027832 C 620.703064 218.563843 625.311096 214.595825 630.943115 214.595825 Z M 673.823059 214.787842 C 679.327087 214.787842 683.807068 218.563843 683.807068 225.027832 C 683.807068 231.363831 679.327087 235.331848 673.823059 235.331848 C 668.255066 235.331848 663.71106 231.23584 663.71106 225.027832 C 663.71106 218.947815 668.319092 214.787842 673.823059 214.787842 Z M 656.735046 196.099792 L 656.735046 240.835815 L 662.943054 240.835815 L 663.327087 235.843811 C 665.823059 239.875793 670.047058 241.47583 674.271057 241.47583 C 683.423096 241.47583 690.399048 235.459839 690.399048 225.027832 C 690.399048 214.275818 683.487061 208.579834 674.399048 208.579834 C 670.559082 208.579834 665.375061 210.499817 663.327087 214.211792 L 663.327087 196.099792 Z M 721.311035 212.675842 C 717.791077 209.539795 714.015076 208.451843 709.151062 208.451843 C 703.263062 208.451843 696.031067 211.075806 696.031067 218.051819 C 696.095032 225.027832 702.943054 226.947815 708.89502 227.523804 C 713.567078 227.971802 716.255066 229.059814 716.19104 231.875793 C 716.127075 234.819824 712.607056 235.971802 709.471069 235.971802 C 705.759033 235.907837 701.343079 234.563843 698.399048 231.299805 L 694.943054 235.971802 C 699.103027 240.643799 704.223022 241.795837 709.343079 241.795837 C 717.535034 241.795837 722.719055 237.699829 722.78302 231.811829 C 722.847046 223.683838 715.231079 222.403809 709.407043 221.891846 C 705.375061 221.507813 702.623047 220.483826 702.559021 217.859802 C 702.559021 215.363831 705.24707 214.019836 709.279053 214.083801 C 712.415039 214.083801 715.103027 214.723816 717.59906 217.027832 Z"/>
    <path id="text1" fill="#ff6600" stroke="none" d="M 229.260437 90.689453 L 211.340393 90.689453 L 211.340393 165.356323 L 232.673798 165.356323 L 232.673798 141.462891 L 232.35379 125.142822 L 263.500549 165.356323 L 281.420593 165.356323 L 281.420593 90.689453 L 260.193878 90.689453 L 260.193878 116.28949 C 260.300537 119.169556 260.300537 122.582886 260.833862 131.542847 Z M 313.43396 131.969543 C 314.713959 123.329529 331.994019 123.649536 332.527344 131.969543 Z M 322.820648 111.382813 C 308.527283 111.382813 293.487213 119.916138 293.487213 139.116211 C 293.487213 158.316284 307.567261 166.529663 324.207306 166.529663 C 333.274017 166.529663 341.914032 163.649658 348.207397 157.782959 L 338.607361 147.009644 C 335.194031 149.56958 330.820679 151.276306 325.060669 151.276306 C 320.793976 151.276306 314.713959 149.249634 313.327301 144.556274 L 350.127411 144.556274 C 354.607422 123.756226 341.487366 111.382813 322.820648 111.382813 Z M 366.994141 99.862793 L 366.994141 112.982788 L 358.567444 112.982788 L 358.567444 128.022827 L 366.994141 128.022827 L 366.994141 145.302917 C 366.674133 161.836304 376.060822 166.636353 386.514191 166.636353 C 391.954224 166.636353 397.180908 165.676331 401.660889 163.116333 L 397.394226 148.609619 C 395.79425 149.67627 393.554199 150.422913 391.634216 150.422913 C 388.647522 150.422913 386.514191 149.036255 386.407532 145.302917 L 386.407532 128.022827 L 398.354248 128.022827 L 398.354248 112.982788 L 386.514191 112.982788 L 386.514191 97.729492 Z M 469.621033 98.049438 C 461.620972 91.756104 452.874329 89.196045 441.674255 89.196045 C 425.887573 89.196045 410.420837 96.022766 410.420837 111.809448 C 410.420837 130.369507 424.500854 134.529541 440.820923 136.022888 C 449.034302 136.769531 453.300964 139.116211 453.300964 142.849609 C 453.300964 147.009644 448.500977 149.462952 441.567627 149.462952 C 435.274231 149.462952 427.060913 148.182983 419.700867 141.036255 L 408.074158 154.369629 C 418.420837 165.249634 428.020874 167.596313 441.460938 167.489685 C 458.207642 167.382996 474.207703 160.129639 474.207703 143.169556 C 474.207703 125.996216 458.740967 120.022827 443.914246 118.422852 C 436.55426 117.676147 431.540894 116.929504 431.540894 111.809448 C 431.540894 107.862793 436.55426 106.262817 441.674255 106.262817 C 448.180969 106.262817 454.047668 107.542847 459.167664 111.382813 Z M 502.487793 131.969543 C 503.767822 123.329529 521.047852 123.649536 521.581177 131.969543 Z M 511.874512 111.382813 C 497.581116 111.382813 482.541077 119.916138 482.541077 139.116211 C 482.541077 158.316284 496.621094 166.529663 513.261169 166.529663 C 522.327881 166.529663 530.967896 163.649658 537.26123 157.782959 L 527.661194 147.009644 C 524.247864 149.56958 519.874512 151.276306 514.114502 151.276306 C 509.847839 151.276306 503.767822 149.249634 502.381165 144.556274 L 539.181274 144.556274 C 543.661255 123.756226 530.54126 111.382813 511.874512 111.382813 Z M 606.821472 165.356323 L 606.821472 136.129578 C 606.821472 117.356201 597.328125 111.489502 586.234741 111.382813 C 580.68811 111.276123 574.074707 113.196167 569.594727 118.422852 L 568.741394 112.662842 L 551.354675 112.662842 L 551.354675 165.356323 L 570.768066 165.356323 L 570.768066 137.622925 C 570.768066 130.689575 575.141418 127.489502 579.834717 127.489502 C 583.461426 127.489502 587.194763 129.729553 587.194763 136.236206 L 587.194763 165.356323 Z M 616.96814 159.809631 C 622.941467 164.182983 633.288208 166.742981 642.461548 166.742981 C 655.154907 166.742981 666.994934 161.836304 666.994934 148.822937 C 666.994934 134.849548 653.76825 131.756226 642.781555 131.436218 C 639.581543 131.32959 638.8349 129.836182 638.8349 128.876221 C 638.8349 126.956177 640.754883 126.316162 643.528198 126.316162 C 647.794922 126.209534 653.874939 127.702881 656.754944 129.516235 L 665.074951 117.782837 C 659.954956 113.942871 652.061584 111.382813 643.528198 111.382813 C 631.154846 111.382813 619.20813 115.969482 619.20813 128.662842 C 619.20813 141.462891 631.581543 145.622925 641.821533 145.942932 C 645.66156 146.262939 647.368225 147.116272 647.368225 148.822937 C 647.368225 150.529602 645.554871 151.382935 642.034912 151.382935 C 637.768188 151.169617 631.368164 150.74292 623.368164 145.516235 Z M 695.275024 131.969543 C 696.554993 123.329529 713.835083 123.649536 714.368408 131.969543 Z M 704.661682 111.382813 C 690.368347 111.382813 675.328308 119.916138 675.328308 139.116211 C 675.328308 158.316284 689.408325 166.529663 706.048401 166.529663 C 715.115051 166.529663 723.755127 163.649658 730.048462 157.782959 L 720.448425 147.009644 C 717.035095 149.56958 712.661743 151.276306 706.901733 151.276306 C 702.63501 151.276306 696.554993 149.249634 695.168335 144.556274 L 731.968445 144.556274 C 736.448486 123.756226 723.32843 111.382813 704.661682 111.382813 Z"/>
    <g id="g1584">
        <path id="path1585" fill="#ff6600" stroke="none" d="M 140 11.439026 C 123.378799 14.028503 108.791107 25.721069 106.300156 43 C 105.048477 51.682495 107.423492 60.617004 104.070221 69 C 99.070999 81.497742 85.593063 91.91394 76 100.956787 C 71.639145 105.067505 65.665802 108.888916 59.424377 109.017761 C 55.869171 109.091187 52.457825 107.114441 49 106.46759 C 42.0242 105.162659 33.972839 106.309875 28.000763 110.249207 C 17.231674 117.352783 13.130157 132.250366 18.34877 144 C 23.750885 156.162842 35.334442 160.924683 48 159.906616 C 52.864914 159.515625 57.068649 157.396851 62 158.790161 C 69.413605 160.884766 74.738571 166.740601 80 172 C 89.213181 181.209656 102.673828 190.921387 108.09491 203 C 109.66008 206.487305 110.22023 210.199951 109.825623 214 C 109.502472 217.111816 108.590103 220.214722 107.164352 223 C 103.485825 230.186096 96.047867 236.260132 88 237.671265 C 76.146637 239.749756 64.865738 236.397766 56.648926 248.003845 C 45.577942 263.641357 57.587616 286.342651 77 284.671265 C 79.660858 284.4422 82.503128 283.816528 85 282.870361 C 101.502853 276.616699 97.74295 257.091675 109.090271 246.173584 C 113.948807 241.498901 120.993759 237.047974 128 237.194458 C 132.124939 237.28064 135.999146 239.479248 140 240.331055 C 147.287079 241.882385 155.058228 239.861328 160.985352 235.387329 C 175.710175 224.272461 173.74408 199.882507 158 190.880371 C 153.253082 188.16626 147.477234 186.638123 142 187.293213 C 137.309235 187.854248 132.749969 190.404907 128 189.195984 C 119.219131 186.961182 113.146851 180.146851 107 174 C 94.78476 161.78479 75.100006 147.854004 79.680557 128 C 81.411728 120.496399 86.740799 115.2677 92 110 C 100.275391 101.711304 109.5103 88.744812 122 87.185181 C 128.277344 86.401306 133.860229 88.459656 140 88.909729 C 153.834106 89.923828 167.377045 87.132629 176.671295 75.996155 C 179.400421 72.726074 181.286774 69.018311 182.644287 65 C 191.655457 38.326294 169.482483 6.845886 140 11.439026"/>
        <path id="circle1585" fill="#4d4d4d" stroke="none" d="M 173.359436 213.444641 C 173.359436 228.758789 160.944855 241.173401 145.630707 241.173401 C 130.316559 241.173401 117.901978 228.758789 117.901978 213.444641 C 117.901978 198.130493 130.316559 185.715881 145.630707 185.715881 C 160.944855 185.715881 173.359436 198.130493 173.359436 213.444641 Z"/>
        <path id="circle1586" fill="#4d4d4d" stroke="none" d="M 71.044281 133.664978 C 71.044281 148.979126 58.629715 161.393738 43.315552 161.393738 C 28.001389 161.393738 15.586823 148.979126 15.586823 133.664978 C 15.586823 118.35083 28.001389 105.936279 43.315552 105.936279 C 58.629715 105.936279 71.044281 118.35083 71.044281 133.664978 Z"/>
    </g>
</svg>
